<svg id="_003-search-1" data-name="003-search-1" xmlns="http://www.w3.org/2000/svg" width="58" height="57.2" viewBox="0 0 58 57.2">
  <g id="Group_5754" data-name="Group 5754" transform="translate(1.699 1.199)">
    <path id="Path_2971" data-name="Path 2971" d="M66.262,50.777c-.253-8.429,1.1-18.494,0-26.961.486-5.844-3.27-9.657-8.741-9.884-8.578,1.142-41.992-3.615-41.914,8.454.135,6.264-.358,15.6,0,21.855,1.061,7.9-4.2,16.991,3.265,22.568,10.467,3.51,21.932,1.406,32.693-.7C62.415,64.909,68.93,64.026,66.262,50.777Z" transform="translate(-14.788 -13.924)" fill="#91b0f4"/>
    <path id="Path_2972" data-name="Path 2972" d="M339.794,333.24c-.5-7.1-10.278-8.6-13.531-2.665C322.444,341.872,340.67,346.481,339.794,333.24Z" transform="translate(-290.018 -290.942)" fill="#1a3cff"/>
  </g>
  <g id="Group_5755" data-name="Group 5755">
    <path id="Path_2973" data-name="Path 2973" d="M201.727,363.679c1.065-.267,2.187-.509,3.228-.873,1.185-.685.244-1.69-.759-1.845-1.083-.249-2.181-.921-3.312-.748A1.784,1.784,0,0,0,201.727,363.679Z" transform="translate(-176.626 -319.21)" fill="#0f0f10"/>
    <path id="Path_2974" data-name="Path 2974" d="M230.327,236.666a1.729,1.729,0,0,0-1.877-1.569c-1.154.1-2.485.18-3.658.246-2.034.106-4.1.2-6.137.27-1.719.058-5.713.245-7.383.221-1.312.108-4.05-.776-3.841,1.413.48,1.8,2.61.6,3.9.711,2.44-.132,4.886-.008,7.33.058,3.29.109,6.528.292,9.825.527A1.733,1.733,0,0,0,230.327,236.666Z" transform="translate(-183.594 -208.484)" fill="#0f0f10"/>
    <path id="Path_2975" data-name="Path 2975" d="M236.871,119.488c-1.963.109-3.9.144-5.856.1-4.406-.033-9.144-1.213-13.359.614a1,1,0,0,0,.2,1.855,23.19,23.19,0,0,0,5.335.6c2.238-.007,4.449-.639,6.685-.709,1.922-.117,3.883-.279,5.8-.431.879-.163,2.47.183,2.458-1.136A1.017,1.017,0,0,0,236.871,119.488Z" transform="translate(-192.173 -105.893)" fill="#0f0f10"/>
    <path id="Path_2976" data-name="Path 2976" d="M102.113,361.14a10.324,10.324,0,0,0-1.164-.483c-.794-.262-1.59-.744-2.446-.386a1.839,1.839,0,0,0,1.359,3.417,21.381,21.381,0,0,0,2.284-1A.9.9,0,0,0,102.113,361.14Z" transform="translate(-86.178 -319.174)" fill="#0f0f10"/>
    <path id="Path_2977" data-name="Path 2977" d="M102.635,235.764a10.569,10.569,0,0,0-1.159-.536c-.783-.291-1.555-.809-2.424-.5a1.836,1.836,0,0,0,1.182,3.475,21.918,21.918,0,0,0,2.365-.892A.9.9,0,0,0,102.635,235.764Z" transform="translate(-86.591 -208.082)" fill="#0f0f10"/>
    <path id="Path_2978" data-name="Path 2978" d="M105.581,118.974a11.148,11.148,0,0,0-1.179-.586c-.774-.309-1.522-.856-2.4-.6a1.828,1.828,0,0,0,.995,3.518,23.189,23.189,0,0,0,2.484-.789A.891.891,0,0,0,105.581,118.974Z" transform="translate(-89.129 -104.602)" fill="#0f0f10"/>
    <path id="Path_2979" data-name="Path 2979" d="M332.635,332.263c-1.765-1.191-3.683-2.273-5.525-3.33a8.928,8.928,0,0,0,1.629-8.841c-3.318-8.826-17.253-7.015-17.586,2.732a8.545,8.545,0,0,0,8.785,9.09A8.644,8.644,0,0,0,326.01,330a.784.784,0,0,0,.063.09c.573.756,1.509,1.721,2.157,2.426.853.851,1.575,1.82,2.451,2.625a1.741,1.741,0,0,0,1.955-2.88ZM316.158,327.3c-3.1-3.319-1.438-10.147,3.313-10.86,4.14-.673,8.2,2.551,7.664,6.888C326.707,329.076,320.036,330.954,316.158,327.3Z" transform="translate(-275.4 -278.675)" fill="#0f0f10"/>
    <path id="Path_2980" data-name="Path 2980" d="M32.779,58.2c-6.814-.718-13.746-.8-20.589-.837-10.862,1.924-8.68-11.646-8.482-18.6.3-8.684-.826-17.407,0-26.062-.622-7.558,20.94-6.392,26.255-6.842,6.562-.169,13.192-.421,19.663.846,6.468.51,6.416,6.988,5.941,12.021-.207,5.215.01,10.772-.232,16.025a.972.972,0,0,0,1.943.046c.165-6.778.169-13.82.472-20.606C58.208,1.928,42.9,3.889,34.468,3.484,27.438,3.923,2.449,2,1.02,10.721-.092,18.476.271,26.37.372,34.156c-.025,11.211-3.847,29.1,13.583,26.218,6.12-.1,12.583-.386,18.7-.231A.974.974,0,0,0,32.779,58.2Z" transform="translate(0 -3.484)" fill="#0f0f10"/>
  </g>
</svg>
